<?xml version="1.0" standalone="no"?>
<!DOCTYPE svg PUBLIC "-//W3C//DTD SVG 20010904//EN"
 "http://www.w3.org/TR/2001/REC-SVG-20010904/DTD/svg10.dtd">
<svg version="1.0" xmlns="http://www.w3.org/2000/svg"
 width="486.000000pt" height="108.000000pt" viewBox="0 0 486.000000 108.000000"
 preserveAspectRatio="xMidYMid meet">
<metadata>
Created by potrace 1.16, written by Peter Selinger 2001-2019
</metadata>
<g transform="translate(0.000000,108.000000) scale(0.100000,-0.100000)"
fill="#A600FF" stroke="none">
<path d="M1295 913 c-94 -97 -198 -341 -220 -516 -7 -52 -5 -61 15 -82 l23
-24 36 72 c67 132 167 264 193 254 41 -14 -46 -201 -137 -295 -56 -57 -60 -64
-43 -73 72 -39 224 123 258 275 12 56 -5 105 -45 126 -20 11 -28 10 -59 -9
-36 -23 -92 -85 -139 -156 -36 -53 -34 -29 7 76 42 113 102 213 171 285 57 61
57 60 3 89 -26 14 -28 14 -63 -22z"/>
<path d="M120 872 c0 -6 -9 -111 -21 -233 -23 -253 -20 -393 9 -415 29 -21 73
-25 97 -10 24 16 102 190 157 350 35 103 54 133 44 71 -11 -74 -19 -310 -12
-359 7 -43 11 -49 43 -63 62 -25 75 -15 123 99 64 153 167 353 228 442 51 75
53 81 36 93 -37 27 -57 12 -111 -87 -29 -52 -84 -167 -122 -255 -38 -88 -76
-173 -83 -190 -12 -28 -13 -26 -16 50 -5 105 14 307 37 396 l18 70 -36 19
c-77 39 -77 40 -125 -105 -73 -217 -178 -465 -198 -465 -29 0 10 435 47 532 5
12 -3 22 -32 36 -52 27 -83 35 -83 24z"/>
<path d="M1725 835 c-112 -112 -345 -541 -318 -585 6 -8 21 -20 33 -27 23 -11
24 -10 41 58 33 129 115 294 213 427 42 56 76 83 63 48 -28 -72 -77 -377 -77
-477 0 -31 24 -53 72 -64 24 -6 28 -4 33 22 29 138 86 280 158 395 47 75 112
147 123 135 3 -3 -5 -54 -20 -114 -29 -126 -46 -249 -46 -345 0 -74 1 -75 74
-94 l23 -5 6 143 c7 154 31 293 72 407 14 37 25 71 25 73 0 12 -101 48 -114
41 -43 -25 -168 -205 -248 -358 -32 -62 -58 -101 -58 -89 0 31 68 298 90 355
15 38 17 49 6 58 -11 9 -91 41 -103 41 -2 0 -24 -20 -48 -45z"/>
<path d="M3987 793 c-10 -49 -56 -186 -102 -307 -91 -236 -91 -234 -36 -272
25 -18 41 -11 41 19 0 40 77 250 149 405 l70 154 -22 30 c-18 24 -64 58 -79
58 -2 0 -12 -39 -21 -87z"/>
<path d="M4312 863 c-44 -21 -174 -161 -241 -258 l-54 -78 17 -66 c38 -143
101 -261 138 -261 7 0 28 9 46 20 l33 21 -49 53 c-27 30 -68 90 -91 134 l-41
81 43 53 c59 72 146 141 237 186 41 20 77 38 78 39 9 4 -11 43 -33 67 -28 30
-38 31 -83 9z"/>
<path d="M3034 710 c-45 -66 -50 -70 -86 -70 -21 0 -38 -4 -38 -9 0 -24 14
-41 35 -41 l23 0 -30 -86 c-16 -47 -32 -110 -35 -140 -5 -48 -3 -58 17 -79 49
-52 96 -53 159 -4 28 23 25 23 -26 5 -50 -18 -73 -6 -73 36 0 42 26 137 56
207 26 59 26 59 75 66 59 8 68 32 14 37 l-35 3 35 53 c19 30 35 57 35 62 0 7
-53 30 -70 30 -5 0 -29 -31 -56 -70z"/>
<path d="M4706 749 c-15 -17 -37 -49 -49 -70 -19 -34 -26 -39 -59 -39 -34 0
-38 -3 -38 -25 0 -20 5 -25 26 -25 21 0 25 -4 19 -17 -22 -59 -54 -167 -60
-207 -9 -56 7 -85 59 -110 42 -20 71 -14 112 20 21 19 23 24 9 19 -61 -21 -74
-23 -91 -10 -16 11 -17 19 -5 82 6 38 26 102 44 143 32 74 32 74 81 84 63 14
73 36 16 36 l-41 0 41 59 c22 33 40 62 40 64 0 3 -11 8 -24 11 -13 3 -31 8
-39 12 -8 3 -25 -8 -41 -27z"/>
<path d="M2722 665 c-47 -40 -58 -76 -44 -157 16 -95 17 -93 -28 -107 -57 -17
-108 -65 -121 -113 -10 -38 -9 -42 17 -69 33 -35 74 -38 121 -9 45 27 63 60
70 123 5 51 8 56 37 65 l31 10 -32 1 c-33 1 -33 1 -33 54 0 69 26 122 60 122
23 0 25 -4 23 -37 -1 -21 1 -38 6 -38 8 0 41 71 41 89 0 17 -80 91 -99 91 -11
0 -33 -11 -49 -25z"/>
<path d="M893 645 c-43 -19 -110 -89 -140 -149 -16 -31 -28 -74 -31 -113 -5
-61 -4 -63 30 -97 45 -45 76 -53 125 -30 40 20 129 101 119 111 -3 3 -26 -13
-52 -36 -77 -67 -144 -66 -144 4 0 30 5 35 65 64 76 38 128 94 144 156 13 53
7 71 -30 90 -34 18 -45 18 -86 0z"/>
<path d="M3322 639 c-115 -57 -197 -242 -149 -336 15 -28 68 -63 97 -63 34 0
160 97 160 124 0 5 -12 -2 -27 -16 -74 -69 -146 -88 -163 -42 -19 48 -12 58
67 99 90 47 132 97 140 167 5 40 2 47 -22 66 -34 27 -49 27 -103 1z"/>
<path d="M3595 636 c-20 -31 -80 -197 -101 -282 -16 -61 -16 -66 1 -84 29 -32
43 -24 60 38 9 31 27 75 40 98 23 39 97 114 113 114 4 0 20 -16 36 -36 26 -32
30 -34 44 -20 20 20 25 166 5 173 -7 3 -49 -33 -93 -79 -86 -88 -95 -84 -40
20 l28 52 -28 15 c-39 20 -47 19 -65 -9z"/>
<path d="M2345 622 c-118 -72 -195 -275 -131 -348 21 -26 25 -27 53 -15 34 14
78 57 118 116 22 32 26 35 22 15 -18 -82 -18 -96 1 -119 14 -18 25 -22 43 -18
22 6 24 10 21 61 -4 58 16 144 50 209 15 30 17 42 7 53 -23 28 -48 16 -75 -38
-41 -82 -124 -207 -147 -223 -34 -24 -47 -19 -47 20 0 71 79 189 152 226 41
21 41 31 -2 66 -20 17 -30 16 -65 -5z"/>
<path d="M4396 563 c-28 -42 -54 -130 -63 -214 -5 -53 -4 -57 23 -78 l29 -23
7 44 c8 52 47 153 84 216 l27 46 -27 23 c-37 32 -52 29 -80 -14z"/>
</g>
</svg>
