<?xml version="1.0" standalone="no"?>
<!DOCTYPE svg PUBLIC "-//W3C//DTD SVG 20010904//EN"
 "http://www.w3.org/TR/2001/REC-SVG-20010904/DTD/svg10.dtd">
<svg version="1.0" xmlns="http://www.w3.org/2000/svg"
 width="499.000000pt" height="106.000000pt" viewBox="0 0 499.000000 106.000000"
 preserveAspectRatio="xMidYMid meet">
<metadata>
Created by potrace 1.16, written by Peter Selinger 2001-2019
</metadata>
<g transform="translate(0.000000,106.000000) scale(0.100000,-0.100000)"
fill="#000000" stroke="none">
<path d="M1500 868 c-80 -83 -191 -351 -206 -498 -5 -48 -3 -58 18 -83 l24
-27 13 37 c34 98 173 293 208 293 45 0 -51 -203 -138 -292 -63 -64 -64 -78 -8
-78 98 0 258 255 219 350 -13 32 -45 60 -67 60 -20 0 -101 -78 -151 -145 -38
-51 -44 -55 -38 -30 11 46 70 180 108 242 18 31 57 81 86 112 28 30 52 56 52
57 0 4 -67 44 -73 44 -4 0 -25 -19 -47 -42z"/>
<path d="M356 783 c-23 -219 -35 -427 -29 -498 l8 -79 37 -14 c64 -24 80 -13
126 87 23 49 62 147 87 218 26 70 48 129 49 130 1 1 2 -93 2 -210 l-1 -212 43
-15 c30 -10 47 -12 59 -4 9 5 37 59 63 119 88 208 208 427 253 464 24 19 21
28 -15 47 -31 16 -32 16 -49 -5 -27 -33 -140 -260 -199 -401 -29 -69 -57 -129
-61 -134 -29 -32 12 417 46 505 6 17 -31 40 -87 54 -26 7 -27 4 -48 -62 -58
-190 -191 -513 -212 -513 -27 0 11 431 47 521 4 12 -6 21 -44 38 -27 11 -54
21 -59 21 -5 0 -12 -26 -16 -57z"/>
<path d="M1940 814 c-57 -48 -167 -220 -262 -409 -50 -99 -70 -153 -63 -175 5
-14 55 -46 59 -38 1 2 9 35 19 73 22 88 131 309 197 398 48 65 78 87 66 49
-30 -92 -58 -255 -63 -364 l-6 -128 36 -15 c57 -24 61 -21 75 50 16 84 71 221
127 316 44 76 128 178 139 169 3 -3 -1 -30 -10 -60 -28 -105 -54 -283 -54
-372 l0 -89 35 -15 c59 -24 60 -24 62 90 2 163 36 352 83 461 l20 46 -43 19
c-23 11 -49 20 -57 20 -19 0 -72 -54 -128 -130 -45 -63 -172 -281 -172 -298 0
-6 -4 -14 -10 -17 -6 -4 -7 7 -4 27 12 66 67 274 85 321 11 26 19 50 19 53 0
8 -83 44 -102 44 -9 0 -30 -12 -48 -26z"/>
<path d="M4137 760 c-9 -44 -54 -178 -101 -298 l-84 -217 34 -32 c36 -35 54
-41 54 -19 0 57 153 450 207 533 11 16 12 27 4 41 -14 26 -69 72 -85 72 -8 0
-19 -30 -29 -80z"/>
<path d="M4441 819 c-48 -29 -143 -132 -216 -235 l-62 -87 17 -58 c50 -164
101 -259 138 -259 10 0 33 10 52 21 l35 22 -23 15 c-47 31 -152 199 -152 242
0 13 31 53 83 104 65 65 100 92 170 126 48 24 87 49 87 56 0 22 -51 74 -73 74
-12 0 -37 -9 -56 -21z"/>
<path d="M3230 713 c-17 -19 -39 -51 -48 -69 -14 -30 -20 -34 -55 -34 -34 0
-38 -2 -35 -22 2 -15 11 -24 26 -26 17 -3 22 -8 17 -20 -22 -56 -54 -166 -60
-204 -8 -54 18 -92 75 -109 36 -11 43 -10 81 15 49 33 47 40 -6 22 -69 -24
-81 -5 -61 93 8 37 27 97 44 132 28 63 30 65 76 75 55 11 61 27 12 34 l-35 5
39 57 c41 59 41 63 -10 78 -26 7 -33 4 -60 -27z"/>
<path d="M4809 676 c-41 -62 -45 -66 -81 -66 -21 0 -38 -4 -38 -9 0 -24 14
-41 35 -41 l22 0 -28 -78 c-31 -89 -44 -161 -35 -195 3 -15 23 -33 51 -48 l45
-24 45 24 c25 13 45 28 45 32 0 12 -1 12 -45 -6 -28 -12 -40 -13 -51 -4 -28
23 -10 121 43 240 23 53 27 56 70 65 58 11 70 34 19 34 -20 0 -36 2 -36 5 0 3
16 30 37 60 20 31 33 58 30 61 -3 3 -23 8 -45 11 -39 5 -39 5 -83 -61z"/>
<path d="M2895 627 c-43 -43 -51 -77 -37 -147 17 -82 16 -100 -8 -100 -36 0
-97 -38 -119 -73 -28 -46 -27 -88 4 -117 20 -19 31 -22 66 -17 68 9 119 74
119 151 0 29 5 36 33 47 l32 13 -32 3 c-32 4 -33 6 -33 51 0 64 27 117 60 117
23 0 25 -3 22 -40 -3 -36 -2 -39 13 -25 27 28 35 75 16 103 -22 34 -65 67 -86
67 -9 0 -32 -15 -50 -33z"/>
<path d="M1115 611 c-112 -51 -202 -243 -155 -330 13 -26 67 -61 93 -61 30 0
90 36 132 79 45 47 36 55 -15 13 -69 -56 -121 -68 -140 -33 -22 43 -13 59 53
92 84 42 124 83 142 143 21 68 20 74 -17 96 -40 24 -43 24 -93 1z"/>
<path d="M3495 613 c-76 -39 -144 -132 -164 -226 -25 -110 56 -194 149 -152
43 20 127 100 112 108 -5 4 -22 -7 -38 -24 -74 -78 -154 -78 -154 0 0 16 17
29 69 55 93 47 130 92 146 179 6 33 4 38 -26 56 -40 25 -54 25 -94 4z"/>
<path d="M3737 573 c-14 -32 -42 -111 -63 -177 -40 -124 -39 -135 3 -163 20
-14 22 -12 38 44 9 32 24 71 32 88 16 33 102 125 116 125 4 0 20 -13 34 -30
47 -56 64 -36 66 75 1 63 -1 70 -19 73 -14 2 -29 -9 -47 -35 -33 -47 -105
-119 -112 -111 -3 3 10 35 28 72 l34 67 -28 14 c-45 24 -55 18 -82 -42z"/>
<path d="M2535 592 c-79 -49 -146 -160 -153 -253 -4 -48 -1 -59 20 -84 20 -23
30 -27 52 -21 30 7 100 75 123 119 20 39 23 31 11 -25 -18 -76 10 -114 66 -92
12 5 13 10 4 29 -14 31 1 109 38 200 28 72 26 95 -8 95 -19 -1 -33 -19 -77
-100 -82 -152 -161 -226 -161 -150 0 68 86 191 155 224 32 15 35 20 23 34 -18
23 -41 41 -53 42 -5 0 -23 -8 -40 -18z"/>
<path d="M4548 553 c-28 -32 -45 -77 -62 -157 -21 -103 -20 -118 7 -144 30
-28 37 -28 37 2 0 31 43 146 81 216 l30 55 -26 23 c-31 27 -47 28 -67 5z"/>
</g>
</svg>
